<svg width="1280" height="640" viewBox="0 0 1280 640" fill="none" xmlns="http://www.w3.org/2000/svg">
  <defs>
    <linearGradient id="bg" x1="80" y1="72" x2="1196" y2="592" gradientUnits="userSpaceOnUse">
      <stop stop-color="#0B1220"/>
      <stop offset="0.45" stop-color="#0E1B34"/>
      <stop offset="1" stop-color="#13284A"/>
    </linearGradient>
    <linearGradient id="accentA" x1="258" y1="182" x2="1032" y2="536" gradientUnits="userSpaceOnUse">
      <stop stop-color="#30C5FF"/>
      <stop offset="0.5" stop-color="#2DE39A"/>
      <stop offset="1" stop-color="#FFB84D"/>
    </linearGradient>
    <linearGradient id="cardGlow" x1="0" y1="0" x2="1" y2="1">
      <stop stop-color="#FFFFFF" stop-opacity="0.24"/>
      <stop offset="1" stop-color="#FFFFFF" stop-opacity="0.04"/>
    </linearGradient>
  </defs>

  <rect x="20" y="20" width="1240" height="600" rx="36" fill="url(#bg)"/>
  <circle cx="1048" cy="108" r="132" fill="#33D0FF" fill-opacity="0.14"/>
  <circle cx="1114" cy="186" r="208" fill="#2DE39A" fill-opacity="0.08"/>
  <circle cx="922" cy="542" r="212" fill="#FFB84D" fill-opacity="0.08"/>
  <circle cx="240" cy="84" r="144" fill="#1F6FEB" fill-opacity="0.12"/>

  <rect x="72" y="72" width="186" height="38" rx="19" fill="#112440"/>
  <rect x="76" y="76" width="178" height="30" rx="15" stroke="#4CD6FF" stroke-opacity="0.28"/>
  <text x="165" y="96" text-anchor="middle" fill="#A9DDF9" font-family="Segoe UI, Arial, sans-serif" font-size="16" font-weight="700">OPENCLAW x FEISHU</text>

  <text x="72" y="188" fill="white" font-family="Segoe UI, Arial, sans-serif" font-size="58" font-weight="800">Multi-Agent Kit</text>
  <text x="72" y="244" fill="#D5E7FF" font-family="Segoe UI, Arial, sans-serif" font-size="28" font-weight="600">One visible coordinator. Five specialists. Shared project docs.</text>
  <text x="72" y="286" fill="#AFC7E5" font-family="Segoe UI, Arial, sans-serif" font-size="23">A practical starter for turning OpenClaw into a Feishu-native AI team.</text>

  <rect x="72" y="332" width="176" height="46" rx="23" fill="#16345D"/>
  <rect x="264" y="332" width="184" height="46" rx="23" fill="#133C35"/>
  <rect x="72" y="394" width="168" height="46" rx="23" fill="#352D17"/>
  <rect x="256" y="394" width="202" height="46" rx="23" fill="#2A2142"/>

  <text x="160" y="361" text-anchor="middle" fill="#D8E8FF" font-family="Segoe UI, Arial, sans-serif" font-size="17" font-weight="700">Single Visible Bot</text>
  <text x="356" y="361" text-anchor="middle" fill="#D8FFF1" font-family="Segoe UI, Arial, sans-serif" font-size="17" font-weight="700">Specialist Agents</text>
  <text x="156" y="423" text-anchor="middle" fill="#FFF0C8" font-family="Segoe UI, Arial, sans-serif" font-size="17" font-weight="700">Shared Docs</text>
  <text x="357" y="423" text-anchor="middle" fill="#EFE1FF" font-family="Segoe UI, Arial, sans-serif" font-size="17" font-weight="700">BMAD-Inspired Ops</text>

  <g transform="translate(650 86)">
    <rect x="0" y="0" width="544" height="468" rx="28" fill="#0F1F39" fill-opacity="0.78" stroke="url(#cardGlow)"/>
    <text x="38" y="54" fill="#D8E8FF" font-family="Segoe UI, Arial, sans-serif" font-size="22" font-weight="700">Recommended topology</text>
    <text x="38" y="84" fill="#88A9D1" font-family="Segoe UI, Arial, sans-serif" font-size="16">Start with one public voice and keep the rest coordinated behind the scenes.</text>

    <rect x="192" y="118" width="158" height="88" rx="24" fill="#102A4A" stroke="#2EC8FF" stroke-opacity="0.75" stroke-width="2"/>
    <text x="271" y="152" text-anchor="middle" fill="#96DFFF" font-family="Segoe UI, Arial, sans-serif" font-size="14" font-weight="700">VISIBLE IN FEISHU</text>
    <text x="271" y="184" text-anchor="middle" fill="white" font-family="Segoe UI, Arial, sans-serif" font-size="28" font-weight="800">main</text>

    <line x1="271" y1="206" x2="271" y2="254" stroke="url(#accentA)" stroke-width="4" stroke-linecap="round"/>
    <line x1="271" y1="254" x2="112" y2="284" stroke="#34D2FF" stroke-opacity="0.72" stroke-width="3.2" stroke-linecap="round"/>
    <line x1="271" y1="254" x2="216" y2="284" stroke="#34D2FF" stroke-opacity="0.72" stroke-width="3.2" stroke-linecap="round"/>
    <line x1="271" y1="254" x2="324" y2="284" stroke="#34D2FF" stroke-opacity="0.72" stroke-width="3.2" stroke-linecap="round"/>
    <line x1="271" y1="254" x2="430" y2="284" stroke="#34D2FF" stroke-opacity="0.72" stroke-width="3.2" stroke-linecap="round"/>

    <rect x="42" y="284" width="140" height="70" rx="22" fill="#122844"/>
    <rect x="194" y="284" width="140" height="70" rx="22" fill="#123329"/>
    <rect x="346" y="284" width="140" height="70" rx="22" fill="#332812"/>
    <rect x="118" y="370" width="140" height="70" rx="22" fill="#271B3D"/>
    <rect x="286" y="370" width="140" height="70" rx="22" fill="#2A2320"/>

    <text x="112" y="326" text-anchor="middle" fill="#DAEEFF" font-family="Segoe UI, Arial, sans-serif" font-size="22" font-weight="700">research</text>
    <text x="264" y="326" text-anchor="middle" fill="#DEFFF2" font-family="Segoe UI, Arial, sans-serif" font-size="22" font-weight="700">architect</text>
    <text x="416" y="326" text-anchor="middle" fill="#FFF0D1" font-family="Segoe UI, Arial, sans-serif" font-size="22" font-weight="700">executor</text>
    <text x="188" y="412" text-anchor="middle" fill="#F0E2FF" font-family="Segoe UI, Arial, sans-serif" font-size="22" font-weight="700">operator</text>
    <text x="356" y="412" text-anchor="middle" fill="#FFE6D9" font-family="Segoe UI, Arial, sans-serif" font-size="22" font-weight="700">reviewer</text>

    <rect x="34" y="448" width="476" height="58" rx="20" fill="#0C1C31" stroke="#4DE0A0" stroke-opacity="0.32"/>
    <text x="272" y="484" text-anchor="middle" fill="#DBFFF1" font-family="Segoe UI, Arial, sans-serif" font-size="19" font-weight="700">PROJECT_CONTEXT  ·  PRD  ·  ARCHITECTURE  ·  ADR  ·  STORIES</text>
  </g>
</svg>
